<svg width="24" height="24" fill="none" xmlns="http://www.w3.org/2000/svg"><path d="M12 0C5.373 0 0 5.373 0 12s5.373 12 12 12 12-5.373 12-12S18.627 0 12 0zm6.734 8.236c-1.323 1.326-2.215 2.098-4.7 5.095a84.407 84.407 0 00-2.8 3.6l-.595.742a.352.352 0 01-.52.043L5.342 13.28a1.202 1.202 0 01-.063-1.696 1.202 1.202 0 011.696-.063l2.861 2.66c.15.138.385.122.516-.036a25.327 25.327 0 011.702-1.871c2.46-2.48 3.97-3.81 4.778-4.4.982-.714 2.108-1.325 2.38-.987.423.53.164.704-.48 1.35z" fill="#E6514A"/></svg>