<svg width="53" height="52" fill="none" xmlns="http://www.w3.org/2000/svg"><path d="M51.738 0H1.262A.762.762 0 00.5.762v50.476c0 .421.34.762.762.762h50.476a.762.762 0 00.762-.762V.762A.76.76 0 0051.738 0zm-.761 50.477H2.023V1.523h48.954v48.954z" fill="#3035C4"/><path d="M48.691 3.047H4.31a.762.762 0 00-.762.762v4.57a.762.762 0 101.523 0V4.57h42.86v42.86H5.07V11.426a.762.762 0 10-1.523 0V48.19c0 .421.34.762.762.762H48.69c.421 0 .762-.34.762-.762V3.81a.761.761 0 00-.762-.762z" fill="#3035C4"/><path d="M26.5 23.207h-1.572l1.316-6.145h5.283a2.796 2.796 0 002.793-2.793 2.796 2.796 0 00-2.793-2.792h-7.54a2.808 2.808 0 00-2.732 2.207l-2.513 11.73a2.781 2.781 0 00.559 2.342 2.781 2.781 0 002.172 1.037H26.5a2.237 2.237 0 012.234 2.234v1.676a2.237 2.237 0 01-2.234 2.234 2.237 2.237 0 01-2.234-2.234 2.796 2.796 0 00-2.793-2.793 2.796 2.796 0 00-2.793 2.793c0 4.312 3.508 7.82 7.82 7.82s7.82-3.508 7.82-7.82v-1.676c0-4.312-3.508-7.82-7.82-7.82zm6.297 9.496A6.304 6.304 0 0126.5 39a6.304 6.304 0 01-6.297-6.297 1.27 1.27 0 012.54 0 3.762 3.762 0 003.757 3.758 3.762 3.762 0 003.758-3.758v-1.676A3.762 3.762 0 0026.5 27.27h-5.027c-.386 0-.745-.171-.988-.47a1.264 1.264 0 01-.254-1.065l2.514-11.73A1.276 1.276 0 0123.986 13h7.541a1.271 1.271 0 010 2.54h-5.899a.76.76 0 00-.744.601L23.24 23.81a.761.761 0 00.744.922H26.5a6.304 6.304 0 016.297 6.296v1.676z" fill="#E6514A"/></svg>