<svg width="53" height="52" fill="none" xmlns="http://www.w3.org/2000/svg"><path d="M51.738 0H1.262A.762.762 0 00.5.762v50.476c0 .421.34.762.762.762h50.476a.762.762 0 00.762-.762V.762A.76.76 0 0051.738 0zm-.761 50.477H2.023V1.523h48.954v48.954z" fill="#3035C4"/><path d="M48.691 3.047H4.31a.762.762 0 00-.762.762v4.57a.762.762 0 101.523 0V4.57h42.86v42.86H5.07V11.426a.762.762 0 10-1.523 0V48.19c0 .421.34.762.762.762H48.69c.421 0 .762-.34.762-.762V3.81a.761.761 0 00-.762-.762z" fill="#3035C4"/><path d="M27.988 22.517a.762.762 0 00-.855.415l-3.131 6.575a.762.762 0 00.688 1.089h3.13a.762.762 0 00.762-.762V23.26a.762.762 0 00-.594-.743zm-.93 6.555h-1.162l1.163-2.44v2.44z" fill="#E6514A"/><path d="M32.645 29.304V14.27a2.778 2.778 0 00-2.178-2.725 2.806 2.806 0 00-3.137 1.524l-8.379 17.596a2.779 2.779 0 00.16 2.691 2.779 2.779 0 002.362 1.302h5.586v3.073a2.796 2.796 0 002.793 2.792 2.796 2.796 0 002.793-2.792v-3.304a2.788 2.788 0 001.675-2.562 2.789 2.789 0 00-1.675-2.561zm-.895 3.812a.762.762 0 00-.629.75v3.865a1.271 1.271 0 01-2.54 0v-3.834a.76.76 0 00-.76-.762h-6.348c-.438 0-.84-.221-1.074-.592a1.263 1.263 0 01-.073-1.223l8.38-17.596a1.275 1.275 0 011.425-.693c.583.132.99.641.99 1.239v15.595c0 .37.265.686.63.75a1.266 1.266 0 011.046 1.25c0 .618-.44 1.143-1.047 1.25z" fill="#E6514A"/></svg>