<svg width="32" height="44" fill="none" xmlns="http://www.w3.org/2000/svg"><path d="M1.614 35.616a.614.614 0 00.613-.615V9.156c0-.582.473-1.056 1.053-1.056h14.313v7.094A3.906 3.906 0 0021.49 19.1a3.906 3.906 0 003.897-3.907V8.1h3.333c.58 0 1.053.474 1.053 1.056v2.2a.614.614 0 101.227 0v-2.2a2.286 2.286 0 00-2.28-2.286h-1.487V5.833c0-2.665-2.162-4.833-4.82-4.833-2.657 0-4.82 2.168-4.82 4.833V6.87H3.28A2.286 2.286 0 001 9.156v25.845c0 .34.275.615.614.615zM24.16 6.87h-3.493V5.833a1.75 1.75 0 011.746-1.751 1.75 1.75 0 011.747 1.75V6.87zm-5.34-1.037a3.602 3.602 0 013.593-3.603 3.602 3.602 0 013.593 3.603V6.87h-.62V5.833a2.98 2.98 0 00-2.973-2.982 2.981 2.981 0 00-2.973 2.982V6.87h-.62V5.833zm0 2.267h.62v3.512a.614.614 0 101.227 0V8.1h3.492v7.094h0a2.676 2.676 0 01-2.67 2.676 2.676 2.676 0 01-2.669-2.677V8.1zM6.332 38.058h13.721a.614.614 0 000-1.23H6.332a.614.614 0 000 1.23z" fill="#3035C4" stroke="#3035C4" stroke-width=".5"/><path d="M9.466 23.718v-1.19a.614.614 0 10-1.227 0v1.19a.614.614 0 101.227 0z" fill="#E6514A" stroke="#E6514A" stroke-width=".5"/><path d="M6.332 34.078h11.102a.614.614 0 000-1.23H6.332a.614.614 0 000 1.23z" fill="#3035C4" stroke="#3035C4" stroke-width=".5"/><path d="M30.386 14.184a.614.614 0 00-.613.615v25.915c0 .582-.473 1.055-1.053 1.055H3.28c-.58 0-1.053-.473-1.053-1.055v-2.362a.614.614 0 10-1.227 0v2.362A2.286 2.286 0 003.28 43h25.44A2.286 2.286 0 0031 40.714V14.799a.614.614 0 00-.614-.615z" fill="#3035C4" stroke="#3035C4" stroke-width=".5"/><path d="M23.761 23.718v-1.19a.614.614 0 10-1.227 0v1.19a.614.614 0 101.227 0z" fill="#E6514A" stroke="#E6514A" stroke-width=".5"/><path d="M24.144 29.482a.614.614 0 00-.613-.615H6.33a.614.614 0 000 1.23h17.2a.614.614 0 00.613-.615z" fill="#3035C4" stroke="#3035C4" stroke-width=".5"/><path d="M16 25.247c.9 0 1.755-.391 2.347-1.072a.616.616 0 00-.06-.868.612.612 0 00-.865.06c-.36.412-.877.65-1.422.65a1.884 1.884 0 01-1.422-.65.613.613 0 00-.866-.06.616.616 0 00-.06.868A3.11 3.11 0 0016 25.247z" fill="#E6514A" stroke="#E6514A" stroke-width=".5"/></svg>