<svg width="39" height="37" fill="none" xmlns="http://www.w3.org/2000/svg"><path d="M31.738 23.548a.641.641 0 01-.64-.642v-.244c0-.75-1.07-1.486-2.16-1.486h-2.62a.64.64 0 010-1.283h2.62c1.628 0 3.441 1.137 3.441 2.769v.244a.641.641 0 01-.64.642zm-2.563-7.827c-.018 0-.035 0-.053-.002a.641.641 0 01-.587-.692l.321-3.916c-.003-2.211-1.71-4.053-3.81-4.053h-3.283c-2.1 0-3.808 1.842-3.808 4.105l.318 3.864a.641.641 0 11-1.277.105l-.32-3.916c-.003-3.024 2.28-5.441 5.087-5.441h3.283c2.807 0 5.09 2.417 5.09 5.388l-.323 3.97a.641.641 0 01-.638.588z" fill="#3035C4"/><path d="M23.405 21.818c-.76 0-1.526-.122-2.216-.354a.642.642 0 01.408-1.217 5.74 5.74 0 001.807.288c1.453 0 2.798-.527 3.509-1.375.969-1.156 1.62-2.807 1.62-4.107v-2.586c0-.337-.07-.562-.205-.667-.483-.377-2.018.013-3.372.357-1.238.315-2.518.64-3.678.64-1.442 0-2.414-.519-2.995-.876-.005.143-.007.322-.007.546v2.586c0 .936.349 2.101.932 3.116a.642.642 0 01-1.11.64c-.702-1.219-1.104-2.588-1.104-3.756v-2.586c0-1.091.024-1.722.531-2.003.453-.253.88.02 1.258.256.501.317 1.258.794 2.495.794 1 0 2.2-.306 3.362-.6 1.877-.478 3.496-.89 4.475-.128.465.362.7.927.7 1.68v2.587c0 1.604-.754 3.54-1.92 4.932-.962 1.148-2.641 1.833-4.49 1.833zm5.85 7.948a.642.642 0 01-.14-1.267l7.609-1.705a.977.977 0 00.65-.402.956.956 0 00.16-.718.968.968 0 00-.614-.738.641.641 0 01.445-1.204 2.255 2.255 0 011.432 1.72 2.23 2.23 0 01-.373 1.677 2.23 2.23 0 01-1.45.923l-7.578 1.699a.659.659 0 01-.141.015z" fill="#3035C4"/><path d="M20.581 33.368h-4.87a.633.633 0 01-.139-.015L9.803 32.07a.642.642 0 01.278-1.253l5.7 1.268h4.8c2.502 0 4.956-.862 6.91-2.426a.562.562 0 01.054-.038l9.489-6.108a.633.633 0 01.096-.051c.237-.1.42-.288.516-.525a.962.962 0 00-1.267-1.247l-9.525 3.93a.642.642 0 01-.244.048H14.43a.64.64 0 01-.55-.972l1.923-3.208a.641.641 0 01.55-.312h2.564a2.569 2.569 0 002.483-1.925h-6.76l-8.746 6.42a.642.642 0 01-.758-1.035l8.915-6.544a.639.639 0 01.378-.124h7.693c.354 0 .641.287.641.642a3.853 3.853 0 01-3.846 3.85h-2.201l-1.154 1.925h10.921l9.402-3.88a2.243 2.243 0 012.95 2.913 2.23 2.23 0 01-1.15 1.202l-9.419 6.062a12.387 12.387 0 01-7.684 2.686z" fill="#3035C4"/><path d="M6.936 37a.643.643 0 01-.52-.266L.121 27.993a.64.64 0 01.145-.896l4.16-3.002a.643.643 0 01.895.146l6.295 8.74a.642.642 0 01-.145.896l-4.16 3.002a.642.642 0 01-.375.12zm-5.4-9.237l5.546 7.7 3.12-2.252-5.546-7.7-3.12 2.252z" fill="#3035C4"/><path d="M8.66 32.727a1.283 1.283 0 11-2.566.001 1.283 1.283 0 012.566-.001z" fill="#3035C4"/><path d="M23.405 3.85a.64.64 0 01-.642-.642V.641a.64.64 0 111.282 0v2.567a.64.64 0 01-.64.642zm2.564 0a.641.641 0 01-.453-1.095L27.759.509a.64.64 0 11.907.907l-2.244 2.246a.638.638 0 01-.453.188zm-5.129 0a.637.637 0 01-.453-.188l-1.923-1.925a.642.642 0 01.906-.908l1.924 1.926a.642.642 0 01-.454 1.095z" fill="#E6514A"/></svg>