<svg width="42" height="21" fill="none" xmlns="http://www.w3.org/2000/svg"><path d="M38.227 18.173c.453 0 .82-.362.82-.808a.814.814 0 00-.82-.807.814.814 0 00-.82.807c0 .446.367.808.82.808z" fill="#E6514A"/><path d="M31.09 0c-4.543 0-8.158 3.293-9.952 5.32C18.715 2.708 15.423 0 10.91 0 5.062 0 0 4.655 0 10.5 0 16.35 5.066 21 10.91 21c4.54 0 8.152-3.287 9.946-5.312C23.275 18.298 26.566 21 31.09 21c1.51 0 2.984-.304 4.378-.904a.803.803 0 00.422-1.064.825.825 0 00-1.08-.417 9.356 9.356 0 01-3.72.77c-4.048 0-6.994-2.472-9.635-5.464-1.477-1.678-3.204-3.944-3.31-4.023-2.195-2.68-4.41-5.052-7.235-5.052-3.246 0-5.988 2.59-5.988 5.654 0 3.065 2.742 5.654 5.988 5.654 2.642 0 4.932-2.154 6.721-4.3.709.88 1.394 1.736 2.136 2.604-1.558 1.802-4.838 4.927-8.857 4.927-5.024 0-9.27-4.07-9.27-8.885 0-4.816 4.246-8.885 9.27-8.885 4.055 0 7.006 2.502 9.629 5.474 1.118 1.27 2.164 2.617 3.185 3.867 2.239 2.739 4.487 5.198 7.366 5.198 3.246 0 5.988-2.59 5.988-5.654 0-3.065-2.742-5.654-5.988-5.654-2.643 0-4.935 2.157-6.727 4.307-.71-.88-1.394-1.735-2.136-2.603 1.558-1.804 4.841-4.935 8.863-4.935 5.024 0 9.27 4.069 9.27 8.885a8.354 8.354 0 01-.785 3.539.803.803 0 00.405 1.07c.414.186.9.005 1.088-.4A9.938 9.938 0 0042 10.5C42 4.65 36.934 0 31.09 0zM10.91 14.539c-2.316 0-4.348-1.888-4.348-4.039s2.032-4.038 4.348-4.038c2.003 0 3.834 1.886 5.672 4.102-1.585 1.948-3.592 3.975-5.672 3.975zm20.18-8.077c2.316 0 4.348 1.887 4.348 4.038 0 2.151-2.032 4.039-4.348 4.039-2.004 0-3.837-1.884-5.677-4.097 1.588-1.95 3.596-3.98 5.677-3.98z" fill="#3035C4"/></svg>