<svg width="44" height="29" fill="none" xmlns="http://www.w3.org/2000/svg"><path d="M37.25 2.412H6.75a1.36 1.36 0 00-1.363 1.355v17.697a1.36 1.36 0 001.363 1.355h30.5a1.36 1.36 0 001.363-1.355V3.767a1.36 1.36 0 00-1.363-1.355zm.11 19.052c0 .06-.05.11-.11.11H6.75a.11.11 0 01-.11-.11V3.767c0-.06.049-.11.11-.11h30.5c.06 0 .11.05.11.11v17.697z" fill="#3035C4"/><path d="M14.78 5.778H10.3c-.805 0-1.46.651-1.46 1.452v3.182c0 .8.655 1.452 1.46 1.452h4.48c.805 0 1.46-.651 1.46-1.452V7.23c0-.8-.655-1.452-1.46-1.452zm.208 4.634a.208.208 0 01-.208.207H10.3a.207.207 0 01-.207-.207V7.23c0-.114.093-.207.207-.207h4.48c.114 0 .208.093.208.207v3.182zm-.208 2.955H10.3c-.805 0-1.46.65-1.46 1.451v3.183c0 .8.655 1.452 1.46 1.452h4.48c.805 0 1.46-.651 1.46-1.452v-3.183c0-.8-.655-1.451-1.46-1.451zM14.988 18a.208.208 0 01-.208.207H10.3a.207.207 0 01-.207-.207v-3.183c0-.114.093-.206.207-.206h4.48c.114 0 .208.092.208.207V18z" fill="#E6514A"/><path d="M43.373 23.986H41.04V2.402A2.411 2.411 0 0038.623 0H5.376a2.411 2.411 0 00-2.415 2.402V14.79c0 .344.28.623.626.623a.624.624 0 00.626-.623V2.402c0-.638.522-1.157 1.163-1.157h33.247a1.16 1.16 0 011.163 1.157v21.584H4.213V18a.624.624 0 00-.626-.623.624.624 0 00-.626.623v5.986H.626a.624.624 0 00-.626.622v1.545A2.859 2.859 0 002.864 29h38.272A2.859 2.859 0 0044 26.153v-1.545a.625.625 0 00-.627-.622zM6.234 27.755c.23-.453.702-.764 1.246-.764h29.04c.543 0 1.015.311 1.245.764H6.235zm36.513-1.602c0 .883-.723 1.602-1.611 1.602h-2.045a2.648 2.648 0 00-2.571-2.009H7.48a2.648 2.648 0 00-2.571 2.009H2.864a1.609 1.609 0 01-1.612-1.602v-.922h41.495v.922z" fill="#3035C4"/><path d="M34.398 6.893h-2.526a.624.624 0 00-.626.622c0 .344.28.623.627.623h2.525a.624.624 0 00.626-.623.624.624 0 00-.626-.622zm-5.688 0H18.451a.624.624 0 00-.626.622c0 .344.28.623.626.623h10.26a.624.624 0 00.626-.623.624.624 0 00-.627-.622zm5.688 2.634H18.451a.624.624 0 00-.626.623c0 .343.28.622.626.622h15.947a.624.624 0 00.626-.623.624.624 0 00-.626-.622zm0 4.943H18.451a.624.624 0 00-.626.622c0 .344.28.623.626.623h15.947a.624.624 0 00.626-.623.624.624 0 00-.626-.622zm0 2.635H18.451a.624.624 0 00-.626.622c0 .344.28.623.626.623h15.947a.624.624 0 00.626-.623.624.624 0 00-.626-.622z" fill="#3035C4"/></svg>