<svg width="30" height="41" fill="none" xmlns="http://www.w3.org/2000/svg"><path d="M3.158 15.215c0 6.623 5.312 12.012 11.842 12.012s11.842-5.389 11.842-12.012S21.53 3.203 15 3.203 3.158 8.592 3.158 15.215zM15 4.805c5.66 0 10.263 4.67 10.263 10.41S20.66 25.625 15 25.625s-10.263-4.67-10.263-10.41S9.34 4.805 15 4.805z" fill="#3035C4"/><path d="M7.689 13.787l3.06 3.059-.704 4.298c-.05.3.072.6.315.779a.78.78 0 00.827.063L15 19.978l3.812 2.008a.78.78 0 00.828-.063.806.806 0 00.315-.78l-.704-4.297 3.06-3.059a.808.808 0 00.197-.818.793.793 0 00-.634-.544l-4.247-.649-1.921-3.897A.788.788 0 0015 7.436c-.3 0-.572.171-.706.443l-1.922 3.898-4.247.648a.793.793 0 00-.633.544.809.809 0 00.197.818zm5.324-.489a.79.79 0 00.588-.433L15 10.027l1.398 2.838a.79.79 0 00.59.433l3.09.472-2.227 2.226a.81.81 0 00-.225.702l.512 3.128-2.775-1.461a.78.78 0 00-.727 0l-2.775 1.461.513-3.128a.807.807 0 00-.225-.702L9.922 13.77l3.09-.472z" fill="#E6514A"/><path d="M15.79.8a.796.796 0 01-.79.802.795.795 0 01-.79-.802c0-.443.354-.801.79-.801.436 0 .79.358.79.8z" fill="#3035C4"/><path d="M11.28.472C4.637 2.192 0 8.254 0 15.215c0 4.323 1.792 8.397 4.938 11.282L.18 34.999a.81.81 0 00.05.867.783.783 0 00.798.313L6.43 35.04l1.898 5.426a.786.786 0 001.43.128L15 31.248l5.241 9.347a.787.787 0 00.756.402.792.792 0 00.674-.53l1.899-5.426 5.401 1.138a.784.784 0 00.798-.313.81.81 0 00.05-.867l-4.757-8.502C28.208 23.612 30 19.538 30 15.215 30 8.255 25.36 2.192 18.72.472a.789.789 0 00-.96.578.802.802 0 00.57.974c5.94 1.538 10.09 6.963 10.09 13.19 0 7.581-6.07 13.614-13.421 13.614-7.357 0-13.421-6.038-13.421-13.613 0-6.228 4.15-11.653 10.09-13.191a.802.802 0 00.57-.974.788.788 0 00-.96-.578zm-2.04 37.81l-1.552-4.435a.788.788 0 00-.905-.516l-4.367.92 3.764-6.73a14.904 14.904 0 007.496 2.849l-4.437 7.912zm13.976-4.951a.788.788 0 00-.904.516l-1.552 4.435-4.437-7.912a14.905 14.905 0 007.497-2.848l3.764 6.729-4.368-.92z" fill="#3035C4"/></svg>