<svg width="53" height="52" fill="none" xmlns="http://www.w3.org/2000/svg"><path d="M51.738 0H1.262A.762.762 0 00.5.762v50.476c0 .421.341.762.762.762h50.476a.762.762 0 00.762-.762V.762A.762.762 0 0051.738 0zm-.761 50.477H2.023V1.523h48.954v48.954z" fill="#3035C4"/><path d="M48.691 3.047H4.31a.762.762 0 00-.762.762v4.57a.762.762 0 001.523 0V4.57h42.86v42.86H5.07V11.426a.762.762 0 10-1.523 0V48.19c0 .421.34.762.762.762H48.69c.421 0 .762-.34.762-.762V3.81a.762.762 0 00-.762-.762z" fill="#3035C4"/><path d="M28.405 11.622a2.787 2.787 0 00-.89-.145c-.868 0-1.7.413-2.226 1.106l-5.078 6.703a2.796 2.796 0 002.225 4.48c.883 0 1.695-.403 2.228-1.107l.059-.077V37.73a2.796 2.796 0 002.793 2.793 2.796 2.796 0 002.793-2.793V14.27a2.79 2.79 0 00-1.904-2.648zm.38 26.108a1.27 1.27 0 01-2.54 0V20.316a.762.762 0 00-1.368-.46L23.45 21.74c-.243.32-.612.503-1.014.503a1.27 1.27 0 01-1.01-2.036l5.078-6.703a1.277 1.277 0 011.416-.437c.517.174.865.658.865 1.204v23.46z" fill="#E6514A"/></svg>