<svg width="46" height="41" fill="none" xmlns="http://www.w3.org/2000/svg"><path d="M42.801 7.116H41.01l.002-3.204a3.906 3.906 0 00-3.9-3.904L23.506 0h-.002a2.88 2.88 0 00-2.05.85L1.142 21.16A3.876 3.876 0 000 23.92c0 1.041.406 2.021 1.143 2.758l13.18 13.181A3.89 3.89 0 0017.084 41c.999 0 1.998-.38 2.76-1.141L32.63 27.071a.895.895 0 10-1.267-1.266L18.576 38.593a2.113 2.113 0 01-2.986 0L2.41 25.412a2.097 2.097 0 01-.62-1.493c0-.564.22-1.094.62-1.493l20.31-20.31a1.1 1.1 0 01.784-.325l13.605.008c1.164 0 2.111.948 2.11 2.112l-.004 7.503h-4.033a1.25 1.25 0 01-.889-.37 3.305 3.305 0 001.031-5.366 3.304 3.304 0 00-4.668 0 3.305 3.305 0 000 4.668 3.283 3.283 0 001.682.9 3.05 3.05 0 002.844 1.96h4.032l-.002 4.291a1.1 1.1 0 01-.325.784l-2.458 2.459a.895.895 0 101.266 1.266l2.459-2.458a2.882 2.882 0 00.849-2.05l.002-4.293h1.796a3.048 3.048 0 003.045-3.044A3.048 3.048 0 0042.8 7.116zm-10.878-.172a1.505 1.505 0 011.067-.441 1.506 1.506 0 011.302.746 3.057 3.057 0 00-2.038 2.08 1.512 1.512 0 01-.332-2.384zm10.878 4.47h-1.795l.002-2.507H42.8c.691 0 1.254.562 1.254 1.254 0 .69-.563 1.253-1.254 1.253z" fill="#3035C4"/><path d="M14.453 22.592a.895.895 0 001.103.623l9.192-2.559a.896.896 0 10-.48-1.725l-9.192 2.558a.896.896 0 00-.623 1.103zm4.047 1.181a2.623 2.623 0 00-.774 1.868c0 .705.275 1.368.774 1.866a2.63 2.63 0 001.866.772c.677 0 1.353-.257 1.867-.772a2.643 2.643 0 000-3.734 2.643 2.643 0 00-3.733 0zm2.467 2.468a.85.85 0 11-1.201-1.203.85.85 0 011.201 1.203zm1.71-7.799a2.643 2.643 0 000-3.734 2.623 2.623 0 00-1.867-.773c-.705 0-1.368.275-1.867.773a2.643 2.643 0 000 3.734 2.63 2.63 0 001.867.772c.676 0 1.352-.257 1.867-.772zm-2.468-2.467a.844.844 0 01.6-.25.85.85 0 11-.6 1.45.85.85 0 010-1.2z" fill="#E6514A"/><path d="M8.906 20.741a.895.895 0 00-1.267 0l-2.544 2.545a.895.895 0 000 1.266L16.45 35.907a.893.893 0 001.266 0L34.693 18.93a.896.896 0 000-1.267L23.338 6.31a.895.895 0 00-1.266 0l-9.367 9.367a.895.895 0 101.266 1.267l8.734-8.735 10.089 10.089-15.711 15.71L6.995 23.92l1.911-1.911a.895.895 0 000-1.267zM34.53 23.01a.902.902 0 00-.634.262.903.903 0 00-.262.633c0 .236.096.467.262.633a.902.902 0 00.633.263.903.903 0 00.634-.263.903.903 0 00.262-.633.903.903 0 00-.262-.633.903.903 0 00-.633-.262z" fill="#3035C4"/><path d="M11.438 19.475a.896.896 0 00-.633-1.529.902.902 0 00-.633.263.899.899 0 00.633 1.529.896.896 0 00.633-.263z" fill="#3035C4"/></svg>