<svg width="53" height="52" fill="none" xmlns="http://www.w3.org/2000/svg"><path d="M51.738 0H1.262A.762.762 0 00.5.762v50.476c0 .421.341.762.762.762h50.476a.762.762 0 00.762-.762V.762A.76.76 0 0051.738 0zm-.761 50.477H2.023V1.523h48.954v48.954z" fill="#3035C4"/><path d="M48.691 3.047H4.31a.762.762 0 00-.762.762v4.57a.762.762 0 001.523 0V4.57h42.86v42.86H5.07V11.426a.762.762 0 10-1.523 0V48.19c0 .421.34.762.762.762H48.69c.421 0 .762-.34.762-.762V3.81a.761.761 0 00-.762-.762z" fill="#3035C4"/><path d="M34.32 19.297c0-4.312-3.508-7.82-7.82-7.82s-7.82 3.508-7.82 7.82a2.796 2.796 0 002.793 2.793 2.796 2.796 0 002.793-2.793 2.237 2.237 0 012.234-2.235 2.237 2.237 0 012.234 2.235v1.676a2.237 2.237 0 01-2.234 2.234A2.796 2.796 0 0023.707 26a2.796 2.796 0 002.793 2.793 2.237 2.237 0 012.234 2.234v1.676a2.237 2.237 0 01-2.234 2.234 2.237 2.237 0 01-2.234-2.234 2.796 2.796 0 00-2.793-2.793 2.796 2.796 0 00-2.793 2.793c0 4.312 3.508 7.82 7.82 7.82s7.82-3.508 7.82-7.82v-1.676A7.75 7.75 0 0032.487 26a7.749 7.749 0 001.833-5.027v-1.676zm-1.523 1.676a6.25 6.25 0 01-1.881 4.484.762.762 0 000 1.086 6.25 6.25 0 011.88 4.484v1.676A6.304 6.304 0 0126.5 39a6.304 6.304 0 01-6.297-6.297 1.27 1.27 0 012.54 0 3.762 3.762 0 003.757 3.758 3.762 3.762 0 003.758-3.758v-1.676A3.762 3.762 0 0026.5 27.27c-.7 0-1.27-.569-1.27-1.269s.57-1.27 1.27-1.27a3.762 3.762 0 003.758-3.757v-1.676A3.762 3.762 0 0026.5 15.54a3.762 3.762 0 00-3.758 3.758 1.271 1.271 0 01-2.54 0A6.304 6.304 0 0126.501 13a6.304 6.304 0 016.297 6.297v1.676z" fill="#E6514A"/></svg>