<svg width="53" height="52" fill="none" xmlns="http://www.w3.org/2000/svg"><path d="M51.738 0H1.262A.762.762 0 00.5.762v50.476c0 .421.341.762.762.762h50.476a.762.762 0 00.762-.762V.762A.762.762 0 0051.738 0zm-.761 50.477H2.023V1.523h48.954v48.954z" fill="#3035C4"/><path d="M48.691 3.047H4.31a.762.762 0 00-.762.762v4.57a.762.762 0 001.523 0V4.57h42.86v42.86H5.07V11.426a.762.762 0 10-1.523 0V48.19c0 .421.34.762.762.762H48.69c.421 0 .762-.34.762-.762V3.81a.762.762 0 00-.762-.762z" fill="#3035C4"/><path d="M31.527 34.938H26.36l6.879-11.674a7.818 7.818 0 001.081-3.967c0-4.312-3.508-7.82-7.82-7.82s-7.82 3.508-7.82 7.82a2.796 2.796 0 002.793 2.793 2.796 2.796 0 002.793-2.793 2.237 2.237 0 012.234-2.235 2.237 2.237 0 011.927 3.366l-9.36 15.885a2.799 2.799 0 00-.02 2.803 2.799 2.799 0 002.426 1.407h10.054a2.796 2.796 0 002.793-2.793 2.796 2.796 0 00-2.793-2.792zm0 4.062H21.473a1.272 1.272 0 01-1.094-1.914l9.36-15.884a3.75 3.75 0 00.519-1.905 3.762 3.762 0 00-3.758-3.758 3.762 3.762 0 00-3.758 3.758 1.271 1.271 0 01-2.54 0A6.304 6.304 0 0126.501 13a6.304 6.304 0 016.297 6.297 6.293 6.293 0 01-.87 3.194L24.37 35.313a.761.761 0 00.656 1.148h6.5a1.271 1.271 0 010 2.54z" fill="#E6514A"/></svg>