<svg width="30" height="42" fill="none" xmlns="http://www.w3.org/2000/svg"><path d="M29.96 39.095c-1.855-9.396-1.775-8.996-1.784-9.035-.243-1.188-.927-2.174-2.036-2.791-.518-.29-.817-.335-1.078-.421l-4.557-1.597-1.518-1.05v-1.193a8.113 8.113 0 003.893-6.103c1.855.086 3.148-1.703 2.37-3.27V8.62c0-3.627-1.955-4.889-2.552-5.19-2.922-3.52-8.38-4.422-12.517-2.28l-.008.003c-.07.043-.923.44-1.973 1.326a.62.62 0 00-.063.868.606.606 0 00.86.063C13.05-.023 19.063.86 21.843 4.318a.587.587 0 00.254.186c.079.032 1.934.82 1.934 4.116v3.883a2.603 2.603 0 00-1.104-.208v-2.012a.98.98 0 00-.887-.981c-1.025-.1-1.599-.774-1.9-1.321a1.218 1.218 0 00-1.868-.34c-2.718 2.344-5.849 2.463-7.996 2.15a3.004 3.004 0 00-3.393 2.505 2.616 2.616 0 00-1.144.207c.002-2.118-.24-4.423 1.477-7.064a.619.619 0 00-.177-.851.606.606 0 00-.844.178c-2.336 3.613-1.5 6.85-1.675 8.87-.778 1.565.514 3.355 2.37 3.268.303 2.922 2.087 4.602 2.13 4.676.316.306.884.946 1.993 1.562V24.2l-1.519 1.05c-5.942 2.083-5.339 1.83-5.821 2.128a4.032 4.032 0 00-1.809 2.503c-.052.21.034-.188-1.824 9.213-.037.19-.057.56-.023.874C.155 41.26 1.062 42 2.507 42h16.755c.336 0 .61-.276.61-.615a.612.612 0 00-.61-.615H6.795v-5.638a.612.612 0 00-.61-.615.612.612 0 00-.61.615v5.638H2.507c-.957 0-1.405-.414-1.267-1.453 1.668-8.226 1.672-8.89 1.945-9.564.048-.067.31-1.017 1.6-1.569.133-.055.05-.018.508-.159.028-.008-.111.04 2.078-.727l1.461 2.72c.16.299.53.41.827.248a.618.618 0 00.245-.834L8.54 26.888l.934-.327 4.869 9.069c.267.5.948.525 1.262.088.057-.079-.268.51 4.915-9.16l.934.328-4.936 9.212a1.718 1.718 0 01-3.033.002l-2.224-4.144a.607.607 0 00-.827-.248.618.618 0 00-.245.834l2.224 4.144c1.113 2.072 4.067 2.07 5.178-.002l5.03-9.39c2.185.766 2.057.722 2.085.73.43.133.382.107.509.16.466.2.744.431.736.425.478.39.808.839.984 1.5.029.106 1.84 9.161 1.846 9.467.019.772-.312 1.194-1.287 1.194h-3.069v-5.638a.612.612 0 00-.61-.615.612.612 0 00-.609.615v5.638h-1.098a.612.612 0 00-.61.615c0 .34.273.615.61.615h5.386c1.445 0 2.352-.74 2.49-2.03a3.447 3.447 0 00-.024-.875zm-7.034-25.569c.704-.037 1.333.44 1.333 1.075 0 .64-.636 1.111-1.333 1.074v-2.149zm-16.082 2.15c-.704.037-1.333-.441-1.333-1.075 0-.64.636-1.112 1.333-1.075v2.15zM10.1 11.01c2.397.349 5.898.21 8.963-2.434l.01.002c.588 1.07 1.518 1.745 2.633 1.92v2.18l-.696.414a1.58 1.58 0 00-1.302-.69h-2.79c-.659 0-1.224.406-1.464.984h-1.14a1.587 1.587 0 00-1.463-.985h-2.79a1.58 1.58 0 00-1.303.69l-.693-.412a1.783 1.783 0 012.035-1.67zM20.075 14v1.225c0 .534-.43.968-.959.968h-1.604a.965.965 0 01-.959-.968V14c0-.2.168-.37.366-.37h2.79c.199 0 .366.17.366.37zm-6.856 0v1.225c0 .534-.43.968-.96.968h-1.603a.965.965 0 01-.96-.968V14c0-.2.168-.37.366-.37h2.79c.199 0 .367.17.367.37zm-3.51 6.51c-1.974-2.32-1.594-4.574-1.645-6.405l.413.246v.874c0 1.212.978 2.198 2.179 2.198h1.604a2.191 2.191 0 002.178-2.198v-.61h.896v.61a2.19 2.19 0 002.179 2.198h1.603a2.191 2.191 0 002.18-2.198v-.874l.412-.246v1.924c0 3.66-2.87 6.838-6.822 6.882h-.082c-1.054-.011-1.864-.284-1.782-.26-1.197-.335-2.338-1.026-3.314-2.14zM15 27.396l-2.768-3.108v-.596a8.042 8.042 0 004.75.173c.051-.017.346-.088.785-.259v.682L15 27.395zm.687 2.192l-.27.56h-.834l-.27-.56.687-.509.687.51zm-2.294 1.693l-.388-.723.309-.23.231.48-.152.473zm-.97-1.819l-1.853-3.457.958-.667 2.569 2.884-1.675 1.24zM15 34.273l-.806-1.5.45-1.395h.712l.449 1.393L15 34.272zm1.605-2.997l-.15-.467.23-.48.307.226-.387.721zm.972-1.813l-1.674-1.241 2.569-2.884.958.667-1.853 3.457z" fill="#3035C4"/></svg>